name C:\Users\u0101727\Documents\MyRepositories\paper-ad\predictivesimulations_2d/Results/PredSim_2D/IK_c30.mot
datacolumns 11
datarows 30
range 0.53185842 0.76555378
endheader
time	pelvis_tilt	pelvis_tx	pelvis_ty	hip_flexion_l	hip_flexion_r	knee_angle_l	knee_angle_r	ankle_angle_l	ankle_angle_r	lumbar_extension	
          0.53185842	        -10.58814531	          0.72259205	          0.88732871	         25.12628172	         -1.87935196	        -28.68129459	        -34.20304358	         14.37912284	        -22.77271776	          7.44776152	
          0.53991688	        -10.58521325	          0.73335342	          0.88730035	         24.54401581	         -1.23958083	        -29.03449178	        -35.61093488	         15.05444787	        -22.55673189	          7.44864481	
          0.54797534	        -10.58350603	          0.74401132	          0.88749474	         23.92860712	         -0.53791906	        -29.29302357	        -36.99696940	         15.56550703	        -22.18773244	          7.44619568	
          0.55603380	        -10.58273094	          0.75457623	          0.88784663	         23.28059437	          0.22086395	        -29.45911110	        -38.35707574	         15.91876053	        -21.67708077	          7.44047807	
          0.56409226	        -10.58285178	          0.76505392	          0.88831902	         22.60097675	          1.03338988	        -29.53574361	        -39.68561365	         16.12647817	        -21.03603856	          7.43147602	
          0.57215072	        -10.58389913	          0.77544754	          0.88889115	         21.89239861	          1.89675562	        -29.52915254	        -40.97575623	         16.20533794	        -20.27584577	          7.41906025	
          0.58020918	        -10.58593081	          0.78575961	          0.88954967	         21.15818858	          2.80800077	        -29.44706867	        -42.22027515	         16.17349826	        -19.40776868	          7.40310606	
          0.58826764	        -10.58902613	          0.79599298	          0.89028417	         20.40165437	          3.76392550	        -29.29716624	        -43.41196193	         16.04773159	        -18.44310727	          7.38354519	
          0.59632610	        -10.59329006	          0.80615132	          0.89108551	         19.62567923	          4.76094391	        -29.08627816	        -44.54386120	         15.84199719	        -17.39319353	          7.36040111	
          0.60438456	        -10.59883880	          0.81623923	          0.89194572	         18.83250852	          5.79530185	        -28.82000485	        -45.60924899	         15.56695814	        -16.26937147	          7.33378783	
          0.61244302	        -10.60577655	          0.82626239	          0.89285885	         18.02370639	          6.86335496	        -28.50260563	        -46.60155415	         15.22978454	        -15.08297574	          7.30390174	
          0.62050148	        -10.61417774	          0.83622768	          0.89382222	         17.20029655	          7.96161405	        -28.13719098	        -47.51436258	         14.83411622	        -13.84532510	          7.27103076	
          0.62855995	        -10.62408120	          0.84614325	          0.89483691	         16.36309188	          9.08658219	        -27.72608254	        -48.34145461	         14.38034564	        -12.56773372	          7.23555262	
          0.63661841	        -10.63551365	          0.85601831	          0.89590591	         15.51290131	         10.23440154	        -27.27124499	        -49.07677140	         13.86669938	        -11.26154612	          7.19792311	
          0.64467687	        -10.64850714	          0.86586260	          0.89703196	         14.65058587	         11.40087878	        -26.77460636	        -49.71424998	         13.29035976	         -9.93815411	          7.15862926	
          0.65273533	        -10.66309210	          0.87568607	          0.89821715	         13.77713573	         12.58170241	        -26.23820408	        -50.24776628	         12.64794581	         -8.60899532	          7.11815168	
          0.66079379	        -10.67929232	          0.88549885	          0.89946305	         12.89373916	         13.77236031	        -25.66440424	        -50.67119813	         11.93587039	         -7.28556383	          7.07697125	
          0.66885225	        -10.69712409	          0.89531112	          0.90077051	         12.00183502	         14.96820505	        -25.05589519	        -50.97838215	         11.15048094	         -5.97940538	          7.03555487	
          0.67691071	        -10.71660153	          0.90513318	          0.90213945	         11.10316998	         16.16415499	        -24.41586841	        -51.16329720	         10.28830394	         -4.70213396	          6.99437860	
          0.68496917	        -10.73772943	          0.91497561	          0.90356870	         10.19978518	         17.35451703	        -23.74826045	        -51.22012974	          9.34643207	         -3.46543807	          6.95395113	
          0.69302763	        -10.76048724	          0.92484918	          0.90505600	          9.29396147	         18.53325409	        -23.05763802	        -51.14271631	          8.32257020	         -2.28103426	          6.91480389	
          0.70108609	        -10.78482262	          0.93476497	          0.90659794	          8.38829355	         19.69370310	        -22.34887794	        -50.92394499	          7.21460006	         -1.16060886	          6.87753752	
          0.70914455	        -10.81053528	          0.94473470	          0.90818890	          7.48540755	         20.82907774	        -21.62797851	        -50.56237679	          6.02260464	         -0.11589176	          6.84276518	
          0.71720301	        -10.83740057	          0.95477114	          0.90982155	          6.58800578	         21.93124398	        -20.90130065	        -50.05509555	          4.74853588	          0.84169860	          6.81130501	
          0.72526148	        -10.86498893	          0.96488782	          0.91148484	          5.69870917	         22.99197612	        -20.17676672	        -49.40625153	          3.39936805	          1.70125020	          6.78400220	
          0.73331994	        -10.89277967	          0.97509891	          0.91316332	          4.82124324	         24.00081301	        -19.46661753	        -48.61767498	          1.99005316	          2.45319593	          6.76184450	
          0.74137840	        -10.92009059	          0.98541631	          0.91483337	          3.96161222	         24.94665708	        -18.79098730	        -47.68731850	          0.55874509	          3.08998776	          6.74555907	
          0.74943686	        -10.94630289	          0.99585123	          0.91645101	          3.12071388	         25.81895745	        -18.16899049	        -46.61713430	         -0.83699580	          3.60668818	          6.73609144	
          0.75749532	        -10.97128546	          1.00641004	          0.91795080	          2.29528265	         26.60886217	        -17.57916496	        -45.41684268	         -2.17300247	          4.00229066	          6.73467050	
          0.76555378	        -10.99279000	          1.01711801	          0.91925403	          1.46282642	         27.31355437	        -17.17734558	        -44.08560043	         -3.33852540	          4.28008989	          6.74310712	
